Hard Breakers (2010)(DivX)(Nl subs) RETAIL TBS       

  

Verenigde Staten
Komedie
98 minuten

geregisseerd door Leah Sturgis
met Tia Carrere, Cameron Richardson en Sophie Monk

Gedreven door een geschiedenis van mislukte dates en frustraties met mannen, besluiten Alexis (Richardson) en haar beste vriendin Lindsay (Monk) de rollen om 
te draaien. Ze bedenken een plan om nietsvermoedende mannen te verleiden om ze vervolgens mee te voeren naar huis en hun lusten te botvieren. Wanneer een 
verstrooide vader van een obsessief ex-vriendje Alexis confronteert met haar problemen met mannen, valt het plan in duigen en wordt Alexis verliefd op één 
van haar mannelijke slachtoffers. Lindsay vervolgt hierna alleen haar mannenjacht.

Storyline :

Driven by a history of failed dates and frustration with men, Alexis decisions (Richardson) and her best friend Lindsay (Monk) to turn the tables. They 
devise a plan to lure unsuspecting men to them to be carried home and to vent their lusts. When an absent father of an obsessive ex-boyfriend Alexis 
confronts her problems with men, the plan falls apart and is in love with Alexis one of her male victims. Lindsay continues below her men hunt alone.
 



Source.............: Hard.Breakers.2010.DVDRip.XVID.AC3.Hive-CM8 
Audio..............: Engels
Subtitles..........: Nederlands
DviX...2 CDS.......: Zelda
Categorie..........: Beeld 
Formaat............: DivX 
Bron...............: Retail
Ondertitels........: Nederlands (ingebakken)
Thanks.............: ed1970  
 

General
Format                           : AVI
Format/Info                      : Audio Video Interleave
File size                        : 701 MiB
Duration                         : 48mn 24s
Overall bit rate                 : 2 024 Kbps
Writing library                  : VirtualDub-MPEG2 build 18294/release

Video
ID                               : 0
Format                           : MPEG-4 Visual
Format profile                   : Advanced Simple@L5
Format settings, BVOP            : Yes
Format settings, QPel            : No
Format settings, GMC             : No warppoints
Format settings, Matrix          : Default (H.263)
Muxing mode                      : Packed bitstream
Codec ID                         : XVID
Codec ID/Hint                    : XviD
Duration                         : 48mn 24s
Bit rate                         : 1 758 Kbps
Width                            : 720 pixels
Height                           : 400 pixels
Display aspect ratio             : 16:9
Frame rate                       : 25.000 fps
Color space                      : YUV
Chroma subsampling               : 4:2:0
Bit depth                        : 8 bits
Scan type                        : Progressive
Bits/(Pixel*Frame)               : 0.244
Stream size                      : 609 MiB (87%)
Writing library                  : XviD 1.2.1 (UTC 2008-12-04)

Audio
ID                               : 1
Format                           : AC-3
Format/Info                      : Audio Coding 3
Mode extension                   : CM (complete main)
Codec ID                         : 2000
Duration                         : 48mn 24s
Bit rate mode                    : Constant
Bit rate                         : 256 Kbps
Channel(s)                       : 2 channels
Channel positions                : Front: L R
Sampling rate                    : 48.0 KHz
Bit depth                        : 16 bits
Stream size                      : 88.6 MiB (13%)
Alignment                        : Split accross interleaves
Interleave, duration             : 40 ms (1.00 video frame)
Interleave, preload duration     : 500 ms

 
  
http://www.moviemeter.nl/film/66080   
http://www.imdb.com/title/tt1220627 


Black-Sam